<svg width="23" height="29" viewBox="0 0 23 29" fill="none" xmlns="http://www.w3.org/2000/svg">
<path d="M23 20.3906V1.35938C23 0.606055 22.4507 0 21.7679 0H4.92857C2.20759 0 0 2.43555 0 5.4375V23.5625C0 26.5645 2.20759 29 4.92857 29H21.7679C22.4507 29 23 28.3939 23 27.6406V26.7344C23 26.3096 22.8203 25.9244 22.5431 25.6752C22.3275 24.8029 22.3275 22.3164 22.5431 21.4441C22.8203 21.2006 23 20.8154 23 20.3906ZM6.57143 7.58984C6.57143 7.40293 6.71004 7.25 6.87946 7.25H17.7634C17.9328 7.25 18.0714 7.40293 18.0714 7.58984V8.72266C18.0714 8.90957 17.9328 9.0625 17.7634 9.0625H6.87946C6.71004 9.0625 6.57143 8.90957 6.57143 8.72266V7.58984ZM6.57143 11.2148C6.57143 11.0279 6.71004 10.875 6.87946 10.875H17.7634C17.9328 10.875 18.0714 11.0279 18.0714 11.2148V12.3477C18.0714 12.5346 17.9328 12.6875 17.7634 12.6875H6.87946C6.71004 12.6875 6.57143 12.5346 6.57143 12.3477V11.2148ZM19.5808 25.375H4.92857C4.01987 25.375 3.28571 24.565 3.28571 23.5625C3.28571 22.5656 4.025 21.75 4.92857 21.75H19.5808C19.4833 22.7186 19.4833 24.4064 19.5808 25.375Z" fill="#0A512F" fill-opacity="0.7"/>
</svg>
