<svg width="37" height="29" viewBox="0 0 37 29" fill="none" xmlns="http://www.w3.org/2000/svg">
<path d="M0 25.8929C0 27.6083 1.38108 29 3.08333 29H33.9167C35.6189 29 37 27.6083 37 25.8929V14.5H0V25.8929ZM12.3333 21.4911C12.3333 21.0638 12.6802 20.7143 13.1042 20.7143H21.8403C22.2642 20.7143 22.6111 21.0638 22.6111 21.4911V24.0804C22.6111 24.5076 22.2642 24.8571 21.8403 24.8571H13.1042C12.6802 24.8571 12.3333 24.5076 12.3333 24.0804V21.4911ZM4.11111 21.4911C4.11111 21.0638 4.45799 20.7143 4.88194 20.7143H9.50694C9.9309 20.7143 10.2778 21.0638 10.2778 21.4911V24.0804C10.2778 24.5076 9.9309 24.8571 9.50694 24.8571H4.88194C4.45799 24.8571 4.11111 24.5076 4.11111 24.0804V21.4911ZM37 3.10714V6.21429H0V3.10714C0 1.39174 1.38108 0 3.08333 0H33.9167C35.6189 0 37 1.39174 37 3.10714Z" fill="#0A512F" fill-opacity="0.7"/>
</svg>
