<svg width="25" height="26" viewBox="0 0 25 26" fill="none" xmlns="http://www.w3.org/2000/svg">
<path d="M4.7 20.5H20.3C21.4782 19.03 22.2171 17.257 22.4315 15.3854C22.6459 13.5138 22.3272 11.6196 21.5119 9.92127C20.6967 8.22291 19.4182 6.78944 17.8238 5.78606C16.2294 4.78267 14.3839 4.2502 12.5 4.25C10.6161 4.2502 8.77063 4.78267 7.1762 5.78606C5.58177 6.78944 4.30328 8.22291 3.48807 9.92127C2.67286 11.6196 2.35409 13.5138 2.56851 15.3854C2.78294 17.257 3.52181 19.03 4.7 20.5ZM12.5 5.5C13.1875 5.5 13.75 6.0625 13.75 6.75C13.75 7.4375 13.1875 8 12.5 8C11.8125 8 11.25 7.4375 11.25 6.75C11.25 6.0625 11.8125 5.5 12.5 5.5ZM7.5 8C8.1875 8 8.75 8.5625 8.75 9.25C8.75 9.9375 8.1875 10.5 7.5 10.5C6.8125 10.5 6.25 9.9375 6.25 9.25C6.25 8.5625 6.8125 8 7.5 8ZM17.5 8C18.1875 8 18.75 8.5625 18.75 9.25C18.75 9.9375 18.1875 10.5 17.5 10.5C16.8125 10.5 16.25 9.9375 16.25 9.25C16.25 8.5625 16.8125 8 17.5 8ZM10.7875 14.9375L15 9.25V16.75C15 18.125 13.875 19.25 12.5 19.25C11.125 19.25 10 18.125 10 16.75C10 16.0375 10.3 15.4 10.7875 14.9375ZM5 13C5.6875 13 6.25 13.5625 6.25 14.25C6.25 14.9375 5.6875 15.5 5 15.5C4.3125 15.5 3.75 14.9375 3.75 14.25C3.75 13.5625 4.3125 13 5 13ZM20 13C20.6875 13 21.25 13.5625 21.25 14.25C21.25 14.9375 20.6875 15.5 20 15.5C19.3125 15.5 18.75 14.9375 18.75 14.25C18.75 13.5625 19.3125 13 20 13ZM13.75 16.75C13.75 16.0625 13.1875 15.5 12.5 15.5C11.8125 15.5 11.25 16.0625 11.25 16.75C11.25 17.4375 11.8125 18 12.5 18C13.1875 18 13.75 17.4375 13.75 16.75Z" fill="white"/>
</svg>
