<svg width="37" height="29" viewBox="0 0 37 29" fill="none" xmlns="http://www.w3.org/2000/svg">
<path d="M18.5 0C8.2826 0 0 8.34656 0 18.6429C0 22.0607 0.915365 25.2624 2.50906 28.0161C2.86943 28.6388 3.55611 29 4.2717 29H32.7283C33.4439 29 34.1306 28.6388 34.4909 28.0161C36.0846 25.2624 37 22.0607 37 18.6429C37 8.34656 28.7174 0 18.5 0ZM18.5 4.14286C19.4449 4.14286 20.2074 4.79859 20.4476 5.67377C20.3763 5.82007 20.2781 5.94759 20.226 6.10554L19.6338 7.89667C19.3042 8.12259 18.9291 8.28571 18.5006 8.28571C17.3656 8.28571 16.4451 7.3581 16.4451 6.21429C16.4451 5.07047 17.3649 4.14286 18.5 4.14286ZM6.16667 22.7857C5.03161 22.7857 4.11111 21.8581 4.11111 20.7143C4.11111 19.5705 5.03161 18.6429 6.16667 18.6429C7.30172 18.6429 8.22222 19.5705 8.22222 20.7143C8.22222 21.8581 7.30172 22.7857 6.16667 22.7857ZM9.25 12.4286C8.11495 12.4286 7.19444 11.501 7.19444 10.3571C7.19444 9.21333 8.11495 8.28571 9.25 8.28571C10.3851 8.28571 11.3056 9.21333 11.3056 10.3571C11.3056 11.501 10.3851 12.4286 9.25 12.4286ZM25.1015 7.74132L21.1619 19.652C22.0413 20.412 22.6111 21.526 22.6111 22.7857C22.6111 23.5444 22.394 24.2454 22.0407 24.8571H14.9593C14.606 24.2454 14.3889 23.5444 14.3889 22.7857C14.3889 20.5887 16.0911 18.8092 18.2366 18.6694L22.1769 6.75804C22.4447 5.945 23.3158 5.499 24.1271 5.77605C24.9345 6.04728 25.3701 6.92763 25.1015 7.74132ZM26.0432 11.444L27.0402 8.43071C27.2631 8.34721 27.4982 8.28636 27.75 8.28636C28.8851 8.28636 29.8056 9.21397 29.8056 10.3578C29.8056 11.5016 28.8851 12.4292 27.75 12.4292C27.019 12.4286 26.4081 12.0227 26.0432 11.444ZM30.8333 22.7857C29.6983 22.7857 28.7778 21.8581 28.7778 20.7143C28.7778 19.5705 29.6983 18.6429 30.8333 18.6429C31.9684 18.6429 32.8889 19.5705 32.8889 20.7143C32.8889 21.8581 31.9684 22.7857 30.8333 22.7857Z" fill="#064921"/>
</svg>
