<svg width="50" height="43" viewBox="0 0 50 43" fill="none" xmlns="http://www.w3.org/2000/svg">
<g filter="url(#filter0_d_37_225)">
<path d="M15.2241 32.25V12.6348C15.224 12.218 15.3816 11.8128 15.6723 11.4831C15.963 11.1534 16.3702 10.9177 16.8301 10.8132C17.2899 10.7086 17.7764 10.741 18.2129 10.9053C18.6495 11.0697 19.0115 11.3566 19.2421 11.7211L31.6228 31.2789C31.8534 31.6434 32.2154 31.9303 32.652 32.0947C33.0885 32.259 33.575 32.2914 34.0348 32.1868C34.4947 32.0823 34.9019 31.8466 35.1926 31.5169C35.4833 31.1872 35.6409 30.782 35.6408 30.3652V10.75" stroke="#0A512F" stroke-opacity="0.7" stroke-width="2" stroke-linecap="round" stroke-linejoin="round"/>
<path d="M11.1406 17.9167H39.724" stroke="#0A512F" stroke-opacity="0.7" stroke-width="2" stroke-linecap="round" stroke-linejoin="round"/>
<path d="M11.1406 25.0833H39.724" stroke="#0A512F" stroke-opacity="0.7" stroke-width="2" stroke-linecap="round" stroke-linejoin="round"/>
</g>
<defs>
<filter id="filter0_d_37_225" x="-3.06787" y="0" width="57" height="51" filterUnits="userSpaceOnUse" color-interpolation-filters="sRGB">
<feFlood flood-opacity="0" result="BackgroundImageFix"/>
<feColorMatrix in="SourceAlpha" type="matrix" values="0 0 0 0 0 0 0 0 0 0 0 0 0 0 0 0 0 0 127 0" result="hardAlpha"/>
<feOffset dy="4"/>
<feGaussianBlur stdDeviation="2"/>
<feColorMatrix type="matrix" values="0 0 0 0 1 0 0 0 0 1 0 0 0 0 1 0 0 0 0.4 0"/>
<feBlend mode="normal" in2="BackgroundImageFix" result="effect1_dropShadow_37_225"/>
<feBlend mode="normal" in="SourceGraphic" in2="effect1_dropShadow_37_225" result="shape"/>
</filter>
</defs>
</svg>
