<svg width="45" height="46" viewBox="0 0 45 46" fill="none" xmlns="http://www.w3.org/2000/svg">
<g clip-path="url(#clip0_29_715)">
<path d="M22.5 4.25C12.15 4.25 3.75 12.65 3.75 23C3.75 33.35 12.15 41.75 22.5 41.75C32.85 41.75 41.25 33.35 41.25 23C41.25 12.65 32.85 4.25 22.5 4.25ZM22.5 9.875C25.6125 9.875 28.125 12.3875 28.125 15.5C28.125 18.6125 25.6125 21.125 22.5 21.125C19.3875 21.125 16.875 18.6125 16.875 15.5C16.875 12.3875 19.3875 9.875 22.5 9.875ZM22.5 36.5C17.8125 36.5 13.6688 34.1 11.25 30.4625C11.3063 26.7313 18.75 24.6875 22.5 24.6875C26.2313 24.6875 33.6938 26.7313 33.75 30.4625C31.3313 34.1 27.1875 36.5 22.5 36.5Z" fill="#ADCF1A"/>
</g>
<defs>
<clipPath id="clip0_29_715">
<rect width="45" height="45" fill="white" transform="translate(0 0.5)"/>
</clipPath>
</defs>
</svg>
